<svg width="420" height="220" viewBox="0 0 420 220" xmlns="http://www.w3.org/2000/svg">
  <rect width="420" height="220" rx="20" fill="#F3D3BF"/>
  <path d="M86 110 C78 100, 78 88, 92 82 C98 92, 100 102, 86 110Z" fill="#F94144"/>
  <path d="M98 88 C108 76, 122 76, 128 90 C116 96, 106 100, 98 88Z" fill="#F3722C"/>
  <path d="M126 92 C142 88, 150 98, 146 112 C134 110, 126 104, 126 92Z" fill="#43AA8B"/>
  <path d="M126 118 C140 122, 146 134, 136 144 C126 136, 122 128, 126 118Z" fill="#277DA1"/>
  <path d="M98 120 C108 130, 108 142, 96 148 C88 138, 88 128, 98 120Z" fill="#90BE6D"/>
  <circle cx="108" cy="110" r="8" fill="#FFB703"/>
  <text x="154" y="122" font-family="Arial, Helvetica, sans-serif" font-size="42" font-weight="700" fill="#0F4CB5">çiçeksepeti</text>
</svg>
